<?xml version="1.0" encoding="UTF-8"?>
<svg xmlns="http://www.w3.org/2000/svg"
     xmlns:xlink="http://www.w3.org/1999/xlink"
     version="1.1" baseProfile="full"
     width="100px" height="100px">

    <g transform="scale(0.75)" transform-origin="50% 50%" stroke-width="8" stroke-linecap="round" stroke="#000" fill="transparent" stroke-linejoin="round" >
        <path d="M40,10 L20,10 A10,10 0 0,0 10,20 L10,80 A10,10 0 0,0 20,90 L20,90 L80,90 A10,10 0 0,0 90,80 L90,60" />
        <path d="M70,10 L35,45 L35,65 L55,65 L90,30 A7,7 0 0,0 90,20 L80,10 A7,7 0 0,0 70,10 " />
        <path d="M65,15 L85,35" stroke-width="5" />
    </g>

</svg>
