<?xml version="1.0" encoding="UTF-8"?>
<svg xmlns="http://www.w3.org/2000/svg"
     xmlns:xlink="http://www.w3.org/1999/xlink"
     version="1.1" baseProfile="full"
     width="150px" height="150px">

    <g transform="scale(0.7) translate(5 20)" transform-origin="50% 50%" stroke="#000" fill="transparent" stroke-width="9" stroke-linejoin="round" stroke-linecap="round">
        <path d="M 90 100 L 90 15 L 10 15 L 10 100 A10,10 0 0,0 20,110 L 80 110 A10,10 0 0,0 90,100 Z" />
        <line x1="38" y1="35" x2="38" y2="89" stroke-width="5"/>
        <line x1="62" y1="35" x2="62" y2="89" stroke-width="5"/>
        <line x1="0" y1="15" x2="100" y2="15" />
        <line x1="30" y1="10" x2="70" y2="10" />
        <line x1="105" y1="35" x2="145" y2="35" />
        <line x1="105" y1="55" x2="135" y2="55" />
        <line x1="105" y1="75" x2="125" y2="75" />
        <line x1="105" y1="95" x2="115" y2="95" />
    </g>

</svg>
